<svg width="1440" height="1440" viewBox="0 0 1440 1440" fill="none" xmlns="http://www.w3.org/2000/svg">
<rect width="1440" height="1440" fill="white"/>
<path d="M712.82 664.904C712.93 663.701 712.383 662.826 711.071 662.826H697.514C696.42 662.826 695.655 663.482 695.546 664.576L682.426 738.923C682.207 740.125 682.863 741 684.066 741H727.58C728.783 741 729.439 740.344 729.658 739.251L731.735 727.224C731.954 726.021 731.298 725.147 729.986 725.147H702.215L712.82 664.904Z" fill="#69BF35"/>
<path d="M712.82 664.904L719.892 666.149L719.945 665.853L719.972 665.554L712.82 664.904ZM695.546 664.576L702.617 665.824L702.664 665.558L702.691 665.29L695.546 664.576ZM682.426 738.923L689.491 740.207L689.494 740.189L689.497 740.171L682.426 738.923ZM729.658 739.251L736.699 740.659L736.718 740.566L736.734 740.473L729.658 739.251ZM731.735 727.224L724.67 725.939L724.665 725.971L724.659 726.002L731.735 727.224ZM702.215 725.147L695.143 723.902L693.66 732.327H702.215V725.147ZM719.972 665.554C720.126 663.852 719.925 661.292 718.147 659.005C716.2 656.502 713.404 655.645 711.071 655.645V670.007C710.05 670.007 708.184 669.588 706.811 667.823C705.606 666.274 705.624 664.752 705.669 664.254L719.972 665.554ZM711.071 655.645H697.514V670.007H711.071V655.645ZM697.514 655.645C695.516 655.645 693.275 656.265 691.417 657.9C689.536 659.555 688.611 661.756 688.4 663.861L702.691 665.29C702.59 666.302 702.102 667.628 700.904 668.682C699.729 669.716 698.418 670.007 697.514 670.007V655.645ZM688.474 663.328L675.354 737.675L689.497 740.171L702.617 665.824L688.474 663.328ZM675.361 737.638C674.976 739.753 675.223 742.48 677.044 744.821C678.927 747.241 681.662 748.181 684.066 748.181V733.819C685.267 733.819 687.072 734.321 688.381 736.004C689.628 737.607 689.656 739.295 689.491 740.207L675.361 737.638ZM684.066 748.181H727.58V733.819H684.066V748.181ZM727.58 748.181C729.532 748.181 731.81 747.618 733.732 745.926C735.587 744.294 736.381 742.251 736.699 740.659L722.616 737.842C722.716 737.344 723.073 736.176 724.244 735.145C725.483 734.054 726.831 733.819 727.58 733.819V748.181ZM736.734 740.473L738.811 728.446L724.659 726.002L722.582 738.028L736.734 740.473ZM738.8 728.508C739.184 726.395 738.947 723.586 737.001 721.198C735.021 718.768 732.246 717.966 729.986 717.966V732.327C729.038 732.327 727.246 731.962 725.868 730.27C724.524 728.621 724.505 726.85 724.67 725.939L738.8 728.508ZM729.986 717.966H702.215V732.327H729.986V717.966ZM709.287 726.392L719.892 666.149L705.748 663.659L695.143 723.902L709.287 726.392Z" fill="#69BF35"/>
<path d="M727.778 776.096C727.668 777.299 728.215 778.174 729.527 778.174H743.084C744.178 778.174 744.943 777.518 745.052 776.424L758.172 702.077C758.391 700.875 757.735 700 756.532 700H713.018C711.815 700 711.159 700.656 710.94 701.749L708.863 713.776C708.644 714.979 709.3 715.853 710.612 715.853H738.383L727.778 776.096Z" fill="#377710"/>
<path d="M727.778 776.096L720.706 774.851L720.653 775.147L720.626 775.446L727.778 776.096ZM745.052 776.424L737.981 775.176L737.934 775.442L737.907 775.71L745.052 776.424ZM758.172 702.077L751.107 700.793L751.104 700.811L751.101 700.829L758.172 702.077ZM710.94 701.749L703.899 700.341L703.88 700.434L703.864 700.527L710.94 701.749ZM708.863 713.776L715.928 715.061L715.934 715.029L715.939 714.998L708.863 713.776ZM738.383 715.853L745.455 717.098L746.938 708.673H738.383V715.853ZM720.626 775.446C720.472 777.148 720.673 779.708 722.451 781.995C724.398 784.498 727.194 785.354 729.527 785.354V770.993C730.548 770.993 732.414 771.412 733.787 773.177C734.992 774.726 734.974 776.248 734.929 776.746L720.626 775.446ZM729.527 785.354H743.084V770.993H729.527V785.354ZM743.084 785.354C745.082 785.354 747.323 784.735 749.181 783.1C751.062 781.445 751.987 779.244 752.198 777.139L737.907 775.71C738.008 774.698 738.496 773.372 739.694 772.318C740.869 771.284 742.18 770.993 743.084 770.993V785.354ZM752.124 777.672L765.244 703.325L751.101 700.829L737.981 775.176L752.124 777.672ZM765.237 703.362C765.622 701.247 765.375 698.52 763.554 696.179C761.671 693.759 758.937 692.819 756.532 692.819V707.181C755.331 707.181 753.526 706.678 752.217 704.996C750.97 703.393 750.942 701.705 751.107 700.793L765.237 703.362ZM756.532 692.819H713.018V707.181H756.532V692.819ZM713.018 692.819C711.066 692.819 708.788 693.382 706.866 695.074C705.011 696.706 704.217 698.749 703.899 700.341L717.982 703.158C717.882 703.656 717.525 704.824 716.354 705.855C715.115 706.945 713.767 707.181 713.018 707.181V692.819ZM703.864 700.527L701.787 712.554L715.939 714.998L718.016 702.971L703.864 700.527ZM701.798 712.491C701.414 714.605 701.651 717.414 703.597 719.802C705.577 722.231 708.352 723.034 710.612 723.034V708.673C711.56 708.673 713.352 709.038 714.73 710.73C716.074 712.379 716.093 714.149 715.928 715.061L701.798 712.491ZM710.612 723.034H738.383V708.673H710.612V723.034ZM731.311 714.608L720.706 774.851L734.85 777.341L745.455 717.098L731.311 714.608Z" fill="#377710"/>
</svg>
